<svg version="1.1" xmlns="http://www.w3.org/2000/svg" viewBox="0 0 250 250"><desc>Created with Snap</desc><defs></defs><g transform="matrix(0.0295,0,0,0.0295,52.4869,133.1251)"><rect x="-1777.68050012038" y="-4508.846229828979" width="8467.292442130663" height="8467.312810632176" fill="#000000" style=""></rect><g transform="matrix(20.8573,0,0,20.8573,-1715.5034,-4466.7393)">
<g id="gSktd36cvqu3z">
	<path fill="#ffffff" d="M369.78955,219.42564l18.46289-18.46289l-18.46289-18.46289V31.17271H218.4624l-18.46289-18.46289
		l-18.46277,18.46289H30.20947v151.32812l-18.46191,18.46191l18.46191,18.46191v151.32811h151.32727l18.46277,18.46289
		l18.46289-18.46289h151.32715V219.42564z M375.52393,200.96275l-5.73438,5.73438v-11.46875L375.52393,200.96275z
		 M232.42529,344.06137h-64.85138L56.90088,233.3878v-64.8501L167.57391,57.86412h64.85138l110.67285,110.67285v64.85156
		L232.42529,344.06137z M343.09814,246.11705v97.94432h-97.94434L343.09814,246.11705z M223.42529,353.06137l-8.69141,8.69141
		H185.2652l-8.69135-8.69141H223.42529z M56.90088,246.11632l97.94458,97.94505H56.90088V246.11632z M47.90088,224.38756
		l-8.69141-8.69141v-29.4668l8.69141-8.69141V224.38756z M56.90088,155.80919V57.86412h97.94458L56.90088,155.80919z
		 M176.57385,48.86412l8.69135-8.69141h29.46869l8.69141,8.69141H176.57385z M343.09814,155.80846l-97.94434-97.94434h97.94434
		V155.80846z M352.09814,177.53697l8.69141,8.69141v29.46875l-8.69141,8.69141V177.53697z M360.78955,40.17271v133.32715
		l-8.69141-8.69141V48.86412H236.15381l-8.69141-8.69141H360.78955z M199.99951,25.43834l5.73438,5.73438H194.2652
		L199.99951,25.43834z M39.20947,40.17271h133.32727l-8.69135,8.69141H47.90088v115.94507l-8.69141,8.69165V40.17271z
		 M24.47607,200.96275l5.7334-5.7334v11.4668L24.47607,200.96275z M39.20947,361.75278V228.42467l8.69141,8.69165v115.94505
		H163.8454l8.69135,8.69141H39.20947z M199.99951,376.48715l-5.73431-5.73438h11.46869L199.99951,376.48715z M227.4624,361.75278
		l8.69141-8.69141h115.94434V237.11705l8.69141-8.69141v133.32713H227.4624z" style=""></path>
</g>


<desc>Created with Snap</desc><defs></defs></g><g><g transform="matrix(1.024,0,0,-1.024,0,0)"><path d="M456 47Q424 91 395 134Q367 178 334 230Q302 282 260 345Q219 409 161 494Q161 419 161 359Q161 300 160 249Q159 198 158 153Q157 108 155 63Q154 39 150 26Q147 13 141 6Q135 -1 127 -3Q120 -4 110 -4Q92 -4 80 8Q68 21 66 62Q61 172 60 282Q60 393 60 511Q60 578 61 616Q63 654 68 673Q74 692 83 697Q93 702 109 702Q125 702 151 677Q177 653 208 613Q239 573 274 521Q310 469 345 414Q380 359 412 305Q445 251 472 207Q471 254 471 310Q471 367 471 436Q471 515 472 566Q473 618 477 648Q482 678 492 690Q502 702 520 702Q537 702 550 691Q563 680 565 640Q567 604 568 576Q569 548 570 520Q571 493 571 463Q571 434 571 397Q571 352 571 311Q571 270 570 230Q569 190 568 149Q567 108 565 63Q564 39 560 26Q557 13 551 6Q545 -1 537 -3Q530 -4 520 -4Q503 -4 491 6Q479 16 456 47ZM923 184Q888 184 849 189Q811 195 766 213Q775 152 816 121Q858 90 936 90Q964 90 986 93Q1009 97 1026 101Q1043 106 1056 109Q1069 113 1080 113Q1094 113 1107 104Q1120 96 1120 76Q1120 51 1099 35Q1079 19 1049 9Q1020 0 987 -4Q954 -7 929 -7Q870 -7 820 9Q771 25 735 57Q699 90 679 138Q659 186 659 250Q659 312 678 360Q698 408 732 441Q766 474 812 491Q859 508 913 508Q955 508 994 497Q1034 486 1064 464Q1095 442 1113 408Q1132 375 1132 330Q1132 290 1117 262Q1102 234 1074 217Q1047 200 1008 192Q970 184 923 184ZM916 416Q889 416 864 409Q839 403 818 388Q798 374 784 350Q770 327 765 292Q803 275 839 268Q875 262 915 262Q974 262 1002 276Q1031 291 1031 329Q1031 364 1004 390Q978 416 916 416ZM1470 378Q1476 391 1487 397Q1499 404 1513 404Q1525 404 1536 398Q1548 392 1555 379Q1584 325 1607 269Q1631 214 1658 157Q1683 238 1702 313Q1721 389 1741 462Q1748 488 1760 496Q1772 505 1791 505Q1808 505 1819 495Q1830 486 1830 470Q1830 457 1823 424Q1817 392 1806 349Q1796 307 1783 259Q1771 211 1758 167Q1746 123 1735 87Q1724 51 1718 33Q1710 10 1699 -2Q1688 -13 1665 -13Q1644 -13 1630 3Q1616 20 1604 43Q1600 51 1591 70Q1582 89 1569 115Q1557 141 1542 172Q1528 203 1513 235Q1498 203 1482 172Q1467 141 1454 114Q1441 88 1431 69Q1422 50 1418 42Q1406 19 1392 2Q1379 -14 1357 -14Q1322 -14 1304 32Q1297 50 1286 85Q1275 121 1263 165Q1251 209 1239 256Q1227 304 1217 346Q1208 388 1202 420Q1196 452 1196 466Q1196 483 1205 494Q1215 505 1233 505Q1253 505 1265 496Q1278 488 1285 462Q1305 389 1324 313Q1343 238 1368 157Q1390 205 1412 257Q1434 309 1470 378ZM2106 522Q2127 522 2159 518Q2191 515 2220 505Q2249 496 2270 479Q2291 462 2291 436Q2291 421 2282 410Q2274 399 2256 399Q2243 399 2226 403Q2210 407 2190 412Q2171 418 2148 422Q2126 426 2101 426Q2059 426 2032 413Q2006 400 2006 372Q2006 356 2015 345Q2025 334 2041 325Q2058 317 2080 311Q2103 305 2128 299Q2159 291 2189 281Q2220 271 2244 253Q2268 236 2283 209Q2298 183 2298 144Q2298 70 2242 26Q2186 -17 2077 -17Q2053 -17 2020 -14Q1987 -10 1958 -1Q1929 9 1908 26Q1888 44 1888 73Q1888 93 1897 103Q1907 114 1921 114Q1932 114 1944 107Q1956 100 1973 92Q1990 84 2014 77Q2038 70 2073 70Q2086 70 2107 71Q2128 73 2148 80Q2169 87 2183 99Q2198 112 2198 135Q2198 153 2188 165Q2178 178 2161 187Q2144 196 2121 202Q2099 209 2074 216Q2045 224 2015 234Q1986 244 1962 260Q1938 276 1923 300Q1908 325 1908 361Q1908 395 1922 424Q1936 454 1962 476Q1988 498 2024 510Q2061 522 2106 522ZM2994 47Q2962 91 2933 134Q2905 178 2872 230Q2840 282 2798 345Q2757 409 2699 494Q2699 419 2699 359Q2699 300 2698 249Q2697 198 2696 153Q2695 108 2693 63Q2692 39 2688 26Q2685 13 2679 6Q2673 -1 2665 -3Q2658 -4 2648 -4Q2630 -4 2618 8Q2606 21 2604 62Q2599 172 2598 282Q2598 393 2598 511Q2598 578 2599 616Q2601 654 2606 673Q2612 692 2621 697Q2631 702 2647 702Q2663 702 2689 677Q2715 653 2746 613Q2777 573 2812 521Q2848 469 2883 414Q2918 359 2950 305Q2983 251 3010 207Q3009 254 3009 310Q3009 367 3009 436Q3009 515 3010 566Q3011 618 3015 648Q3020 678 3030 690Q3040 702 3058 702Q3075 702 3088 691Q3101 680 3103 640Q3105 604 3106 576Q3107 548 3108 520Q3109 493 3109 463Q3109 434 3109 397Q3109 352 3109 311Q3109 270 3108 230Q3107 190 3106 149Q3105 108 3103 63Q3102 39 3098 26Q3095 13 3089 6Q3083 -1 3075 -3Q3068 -4 3058 -4Q3041 -4 3029 6Q3017 16 2994 47ZM3237 62Q3235 99 3233 146Q3232 194 3232 251Q3232 322 3233 372Q3234 423 3238 455Q3243 488 3253 503Q3263 519 3281 519Q3298 519 3311 507Q3324 495 3326 455Q3332 350 3332 252Q3332 202 3330 158Q3328 115 3326 63Q3325 39 3321 26Q3318 13 3312 6Q3306 -1 3298 -3Q3291 -4 3281 -4Q3263 -4 3251 8Q3239 21 3237 62ZM3282 700Q3305 700 3324 682Q3344 664 3344 639Q3344 615 3324 597Q3304 580 3279 580Q3258 580 3239 597Q3221 615 3221 641Q3221 665 3239 682Q3258 700 3282 700ZM3691 426Q3654 426 3624 414Q3595 402 3558 378Q3558 357 3558 316Q3558 276 3557 228Q3556 181 3555 135Q3554 89 3551 58Q3549 38 3546 26Q3544 15 3539 9Q3535 3 3527 1Q3520 0 3508 0Q3496 0 3488 1Q3481 3 3476 8Q3471 14 3468 25Q3465 36 3463 55Q3461 73 3459 103Q3458 133 3457 168Q3456 204 3455 240Q3455 277 3455 308Q3455 359 3456 391Q3458 423 3462 448Q3468 490 3478 501Q3488 512 3505 512Q3530 512 3542 498Q3555 484 3558 452Q3595 484 3637 503Q3680 522 3725 522Q3768 522 3803 502Q3839 482 3862 437Q3876 410 3883 377Q3890 345 3893 309Q3894 293 3895 277Q3896 262 3896 244Q3897 227 3897 205Q3897 183 3897 153Q3897 121 3896 93Q3895 65 3890 44Q3886 24 3875 12Q3864 1 3845 1Q3799 1 3797 45Q3797 48 3797 70Q3797 93 3796 123Q3796 153 3795 184Q3795 215 3794 235Q3793 251 3791 269Q3790 288 3787 307Q3785 326 3781 343Q3777 361 3771 375Q3757 408 3736 417Q3715 426 3691 426ZM4114 443L4113 -60Q4113 -100 4104 -136Q4095 -172 4076 -200Q4057 -227 4026 -244Q3995 -260 3952 -260Q3912 -260 3896 -249Q3880 -237 3880 -211Q3880 -185 3901 -179Q3922 -173 3949 -173Q3982 -173 3998 -144Q4015 -115 4015 -73L4015 442Q4015 466 4019 479Q4023 492 4030 499Q4037 506 4046 507Q4055 509 4065 509Q4083 509 4098 496Q4114 483 4114 443ZM4064 712Q4087 712 4106 694Q4126 676 4126 651Q4126 627 4106 609Q4086 592 4061 592Q4040 592 4021 609Q4003 627 4003 653Q4003 677 4021 694Q4040 712 4064 712ZM4648 -4Q4632 -4 4622 1Q4613 7 4608 16Q4603 25 4601 37Q4599 50 4598 64Q4573 33 4533 12Q4494 -9 4433 -9Q4394 -9 4353 2Q4313 14 4280 42Q4247 71 4226 119Q4205 167 4205 240Q4205 297 4219 347Q4233 397 4261 434Q4290 472 4333 494Q4376 516 4434 516Q4485 516 4525 497Q4565 479 4597 437Q4597 449 4598 461Q4599 474 4603 484Q4608 495 4618 501Q4628 508 4645 508Q4660 508 4673 496Q4686 484 4688 444Q4691 391 4692 349Q4694 307 4694 262Q4694 207 4693 161Q4692 115 4688 63Q4686 40 4682 26Q4679 13 4674 6Q4669 0 4662 -2Q4655 -4 4648 -4ZM4594 250Q4594 302 4578 335Q4563 368 4539 386Q4516 405 4489 412Q4462 419 4439 419Q4403 419 4377 406Q4352 393 4336 370Q4320 348 4312 317Q4305 287 4305 251Q4305 163 4343 121Q4382 79 4448 79Q4487 79 4514 92Q4542 106 4559 129Q4577 152 4585 183Q4594 215 4594 250Z" fill="#ffffff" style=""></path></g></g></g></svg>