<svg version="1.1" xmlns="http://www.w3.org/2000/svg" viewBox="0 0 250 250"><desc>Created with Snap</desc><defs></defs><g transform="matrix(0.0489,0,0,0.0489,62.4812,118.1099)"><g transform="matrix(12.6232,0,0,12.6232,-1226.8747,-2392.897)">
<g id="gSktd36cvq9gh">
	<g>
		<path d="M365.81528,166.56174c0.61768,2.60449,0.01721-1.06738-0.38635-4.03174c-0.19678-1.48242-0.35449-2.78369-0.31274-3.01367
			c0.03137-0.11719,0.13281,0.02832,0.33252,0.54639c0.17444,0.5249,0.42407,1.42822,0.77783,2.81982
			c-0.146-0.99023-0.30457-2.11865-0.58594-3.3252c-0.29688-1.20312-0.6427-2.50293-1.02368-3.87207
			c-0.39331-1.36523-0.76929-2.81592-1.26233-4.27783c-0.51892-1.45264-1.05334-2.94922-1.59338-4.46143
			c-1.01868-3.04492-2.40552-6.02051-3.56873-8.89111c-0.56494-1.44336-1.23328-2.79541-1.8324-4.09766
			c-0.6012-1.30176-1.16113-2.5415-1.66333-3.69629c0.27393-0.78418,1.56018,0.75684,1.94543,0.38867
			c0.19189-0.18604,0.15698-0.85205-0.34985-2.54199c-0.58972-1.64941-1.65552-4.32373-3.62109-8.47852
			c-1.46033-2.69873-2.6123-4.75049-3.52966-6.30615c-0.96558-1.52686-1.72034-2.54395-2.27539-3.24756
			c-1.12207-1.39941-1.54822-1.48389-1.95032-1.48682c-0.40173-0.00244-0.78003,0.07568-1.7926-0.97949
			c-0.49316-0.53613-1.23059-1.29736-2.18787-2.50635c-0.98242-1.19092-2.15833-2.85205-3.80432-4.99414
			c1.45752,1.98975,2.79407,4.06689,4.1969,6.09229c0.34326,0.51172,0.70142,1.01318,1.03235,1.53271l0.96472,1.57715
			l1.92944,3.15137c-1.21167-1.42041-2.49426-3.16553-3.97778-5.07959c-1.53491-1.87842-3.14075-4.01709-4.90869-6.27832
			c-0.91162-1.10938-1.85474-2.25732-2.82483-3.43799c-0.96948-1.18018-1.91992-2.42969-3.00781-3.61133
			c-2.13306-2.39746-4.26746-4.98047-6.68481-7.41846c-4.63855-5.06201-9.98096-9.89502-15.33752-14.47705
			c-1.38342-1.09277-2.75977-2.18018-4.12354-3.25732c-0.68408-0.53564-1.36499-1.06934-2.04199-1.59961
			c-0.70203-0.49658-1.3999-0.99072-2.09302-1.48096c-1.38904-0.97656-2.75903-1.93946-4.10364-2.88477
			c-1.37073-0.90576-2.755-1.73584-4.08911-2.56982c-7.60144-5.61914-15.12061-10.80566-23.87-15.42383
			c-8.76465-4.52441-18.78674-8.51172-31.16602-10.85498c1.38098,0.13623,7.521,1.13574,6.45093,0.27441
			c-1.10107-0.39404-2.43481-0.78857-3.8894-1.17139c-1.45569-0.37842-3.0238-0.78613-4.63184-1.021
			c-1.60107-0.26953-3.2113-0.51611-4.7196-0.73389c-0.75427-0.10596-1.48291-0.20801-2.17261-0.30469
			c-0.69482-0.05664-1.35034-0.11035-1.95288-0.15967c-6.65302-0.19434-5.75879,0.37158-3.8877,1.02686
			c1.87988,0.65576,4.74719,1.40088,2.2439,1.59082c-2.71783-0.16846-5.38287-0.40625-8.117-0.38379
			c-1.36188-0.0249-2.73596-0.0498-4.13312-0.07568c-0.69794-0.00879-1.39948-0.0498-2.11072-0.03955
			c-0.71112,0.01318-1.42932,0.02637-2.15601,0.04004c-2.90527,0.07275-5.93945-0.05371-9.19788,0.10596
			c-1.62927,0.04248-3.31476,0.06787-5.06927,0.07275c-1.7536,0.02246-3.56903,0.1543-5.47076,0.19678
			c-1.58142-0.06738-3.17725-0.21777-4.76306-0.2168l-4.77667-0.01709c-3.20728-0.08398-6.38513,0.17383-9.60614,0.30322
			c-0.75049,0.34326-1.5401,0.62646-2.34509,0.96729c-0.80505,0.34082-1.64038,0.66553-2.5058,0.97754
			c-1.72845,0.6333-3.5871,1.17676-5.54596,1.75732c-1.94324,0.64111-4.00305,1.25537-6.17566,1.8623
			c-0.54297,0.15234-1.09235,0.30664-1.64801,0.4624c-0.54907,0.17725-1.10437,0.35645-1.66583,0.53809
			c-1.12628,0.35449-2.27728,0.71631-3.4527,1.08643c-9.36597,2.99268-20.2431,7.15674-31.10229,14.17969
			c-2.61151,0.53613-9.28107,4.96191-15.58649,9.81885c-3.06207,2.54883-6.20923,4.98096-8.67517,7.17725
			c-1.25995,1.06592-2.41241,1.99756-3.40491,2.72998c-0.99219,0.73291-1.76428,1.33301-2.3714,1.61377
			c-2.19385,2.10596-3.58594,3.06104-4.57172,3.40918c-0.97815,0.35498-1.52826,0.11768-2.07983-0.22412
			c-1.09521-0.66846-2.08862-1.67529-6.05536,1.59473c-1.65436,1.50146-2.67261,2.5752-3.3468,3.20215
			c-0.6698,0.63086-0.96002,0.84766-0.99628,0.78662c-0.07269-0.12109,0.87103-1.35303,1.81732-2.58691
			c0.95923-1.22119,1.99023-2.38135,1.91302-2.51318c-0.03418-0.06152-0.33612,0.14307-1.04095,0.74805
			c-0.72437,0.5874-1.77808,1.64258-3.34473,3.26025c0.77002-0.9502,1.47314-1.78857,2.11786-2.53076
			c0.67468-0.71436,1.2937-1.33008,1.85675-1.86914c1.12781-1.07764,2.04547-1.83789,2.8335-2.39844
			c0.78809-0.56055,1.44672-0.9209,2.05804-1.19922c0.63116-0.25879,1.21356-0.43652,1.83118-0.64844
			c2.5304-0.79248,5.29303-2.45166,15.07043-10.74268l-1.36438,0.31299c0.9679-0.91016,2.06036-1.86182,3.23907-2.84082
			c0.59125-0.4873,1.19598-0.9917,1.83234-1.48145c0.65411-0.46631,1.32147-0.94238,1.9986-1.4248
			c1.36853-0.94385,2.77612-1.91504,4.19269-2.89209c1.42645-0.96094,2.93604-1.81592,4.3808-2.71875
			c1.46387-0.87305,2.86035-1.8042,4.27032-2.59229c1.40607-0.79443,2.74835-1.57275,3.99042-2.32812
			c2.45898-1.55713,4.62646-2.82422,6.06012-4.03223c1.55756-0.76709,2.91205-1.45068,4.11456-1.99854
			c1.22296-0.50293,2.26575-0.93213,3.15087-1.2959c1.77808-0.70557,2.93951-1.10889,3.65808-1.29346
			c1.43683-0.36914,1.10388,0.13428,0.39105,0.84375c-1.43469,1.42969-4.34814,3.63818,2.00897,1.52295
			c1.68573-1.00244,4.70538-2.5874,8.3905-4.2085c1.86554-0.7627,3.8736-1.5835,5.92889-2.42334
			c2.06531-0.82617,4.2356-1.50391,6.33093-2.26416c1.05298-0.36084,2.08557-0.75439,3.10968-1.08057
			c1.0282-0.31494,2.03149-0.62256,2.99762-0.91846c1.93329-0.59521,3.71124-1.19238,5.24609-1.69775
			c3.08929-0.91016,5.15942-1.69678,5.35431-2.24707l-5.31781,0.95703c-1.76624,0.3501-3.51257,0.79736-5.26953,1.19189
			c-3.52747,0.74219-6.97668,1.78809-10.4411,2.77344c3.35663-1.01025,0.63892-0.67627,1.96509-1.23682
			c3.71545-0.63037,8.78564-1.96484,14.22723-3.47949c2.73865-0.66064,5.55127-1.47998,8.34186-2.1543
			c2.80884-0.62939,5.56348-1.24658,8.11633-1.81885c5.15302-0.88525,9.54785-1.64746,11.96143-1.50439
			c2.41626,0.05908,2.80237,0.66211,0.0816,2.20508c-0.71399,0.10645-1.72675,0.18701-2.87891,0.25879
			c-1.14948,0.11914-2.43738,0.25244-3.70648,0.38428c-2.53461,0.28564-4.99292,0.54102-6.06934,1.01807
			c0.61816,0.57568,4.57782,0.48828,9.75818,0.10303c2.59735-0.08057,5.50574-0.17041,8.45569-0.26123
			c2.95044-0.00391,5.9444,0.09229,8.70679,0.18506c2.8573-0.22607,5.82849-0.35156,8.97723-0.54053
			c3.14142-0.10938,6.43994-0.02881,9.95996,0.0625c6.97522,0.54053,14.85242,1.53271,23.4248,4.57861
			c2.97144,1.01025,3.46997,1.54492,3.98291,2.0293c0.5105,0.48877,1.02002,0.97705,3.89978,2.14648
			c1.09583,0.33594,2.17517,0.61133,3.18494,0.97705c1.01208,0.36182,1.99121,0.71143,2.93945,1.05029
			c1.8894,0.69922,3.67957,1.30518,5.31311,1.99805c1.62366,0.71729,3.14539,1.39014,4.58301,2.02539
			c1.43225,0.64795,2.78577,1.24805,4.01587,1.93506c2.47913,1.33301,4.70752,2.51562,6.7439,3.75293
			c2.01343,1.2793,3.89148,2.50928,5.77405,3.75c1.87671,1.25049,3.672,2.65234,5.65564,4.05615
			c2.0022,1.37842,4.01672,3.02539,6.33728,4.78125c4.63293,3.52197,10.15466,7.96338,17.30029,14.33399
			c8.15955,8.76904,16.8114,18.81299,24.21375,29.78369c7.45288,10.9165,13.41748,22.8501,17.03748,34.12402
			c-0.04517-0.95166,0.32324-0.53125,0.92981,0.71387c0.3031,0.62207,0.66541,1.44971,1.06433,2.41309
			c0.1958,0.48291,0.40454,0.99805,0.62305,1.53711c0.20178,0.54541,0.38513,1.12451,0.58411,1.71582
			c0.76733,2.37402,1.64697,4.99023,2.28992,7.33984c0.59131,2.36328,1.10474,4.41553,1.39844,5.58936
			c0.26929,1.67529,0.76013,5.77734,1.62219,10.53467c0.31018,2.40479,0.66614,4.98682,1.078,7.5376
			c0.39539,2.55371,0.64282,5.1084,1.04712,7.41748c-0.72485-5.47559-0.85474-2.07275-1.64197-5.82812
			c0.40344,2.59473,0.7356,4.93164,1.00537,7.03369c0.15515,1.04932,0.2179,2.04736,0.271,2.98926
			c0.04871,0.94189,0.0946,1.82764,0.1377,2.66064c0.06982,1.6665,0.09839,3.12158,0.09167,4.39307
			c-0.07068,1.2749-0.16577,2.36523-0.27832,3.2998c-0.45007,3.73682-1.17896,4.97461-1.73645,5.55713
			c-0.3175-4.00488-0.57812-7.10107-1.02991-9.76807c-0.49988-2.64941-0.92578-4.90576-1.36682-7.24365
			c-0.52222-2.31934-1.04785-4.71484-1.51819-7.69141c-0.22461-1.49072-0.60449-3.1001-0.90076-4.93066
			C366.53293,170.88986,366.30893,168.83517,365.81528,166.56174z" fill="#9c1f16" style=""></path>
		<path d="M47.24979,130.10275c-0.23047-2.4165-4.23279,5.49023-6.89716,12.05127c-1.34241,3.26953-2.38031,6.17627-2.99274,7.06396
			c-0.58893,0.89209-0.66217-0.18799,0.19458-4.88672c-0.56348,1.51758-1.08856,2.93164-1.58093,4.25781
			c-0.23877,0.6665-0.46967,1.31055-0.6933,1.93457c-0.18719,0.63574-0.36829,1.25098-0.54395,1.84766
			c-0.69147,2.39014-1.25323,4.49658-1.72943,6.43799c-0.38074,1.96631-0.68292,3.76562-0.94763,5.52051
			c-0.12506,0.87744-0.2486,1.74365-0.3728,2.61475c-0.11615,0.87109-0.15607,1.76074-0.23425,2.6626
			c0.21869-0.89795,0.39429-1.67139,0.5722-2.32666c0.19867-0.65088,0.36377-1.19141,0.49957-1.63574
			c0.27753-0.88623,0.44952-1.38477,0.54803-1.60742c0.19696-0.44482,0.1001,0.21143-0.03693,1.07568
			c-0.27472,1.73193-0.70673,4.28027,0.7218,0.56299c-4.37756,23.0791-4.15271,46.34326,0.07977,68.32227
			c4.23889,21.99072,12.60101,42.69727,24.2392,60.94238c0.49884,0.87939,0.99585,1.75537,1.49115,2.62793
			c0.49872,0.87207,1.06812,1.69287,1.60052,2.53613c1.08643,1.6709,2.16235,3.33838,3.26984,4.97021
			c2.3595,3.15479,4.61407,6.34961,7.18707,9.23926c4.9422,5.95312,10.45312,11.23145,16.19635,16.1123l4.38751,3.55713
			c1.47552,1.16406,3.03143,2.2251,4.5448,3.3335l2.28632,1.64014c0.7594,0.54932,1.57141,1.02783,2.35498,1.54346
			c1.58014,1.0083,3.1618,2.01807,4.74622,3.0293c1.6189,0.9541,3.26715,1.86426,4.90216,2.7959l2.45947,1.38818l2.53412,1.27002
			c1.69043,0.83936,3.38623,1.68115,5.08868,2.52637c1.73846,0.7627,3.4837,1.52832,5.237,2.29736
			c2.03704,1.19141,3.72338,2.00049,5.00048,2.72314c1.28241,0.71143,2.18787,1.26904,2.78589,1.7002
			c1.19598,0.86279,1.16156,1.21826,0.45062,1.28955c-1.41675,0.14404-5.56433-0.85986-7.8485-1.16699
			c7.29827,3.42969,14.77111,6.49805,22.45739,8.95898c-7.92438-1.9585-15.70209-4.57031-23.37127-7.58105
			c-0.57397,0.28223,1.66327,1.56641,4.71447,3.19678c0.76532,0.4043,1.57843,0.8335,2.4104,1.27246
			c0.83917,0.42432,1.71954,0.80859,2.57678,1.21973c1.72003,0.80908,3.39386,1.6167,4.76776,2.34961
			c2.19379,0.73584,4.42957,1.34766,6.63782,2.0249c-4.57007,0.9209-16.49695-3.26172-28.99718-10.4126
			c-1.58936-0.83984-3.1048-1.87549-4.68475-2.82568c-1.5542-0.99463-3.17737-1.90625-4.69995-2.98975
			c-3.06635-2.13086-6.19861-4.18604-9.09143-6.44629c-1.45905-1.10986-2.94342-2.15088-4.33917-3.25586
			c-1.39301-1.10791-2.76086-2.19629-4.09406-3.25684c-0.6734-0.52197-1.33801-1.03662-1.99268-1.54395
			c-0.63623-0.52979-1.26276-1.05176-1.87848-1.56445c-1.23694-1.01953-2.44403-1.98779-3.61536-2.89551
			c2.72906,2.28711,4.68622,4,6.18188,5.08936c1.49249,1.09326,2.40045,1.7124,2.8866,1.98828
			c0.97217,0.55225,0.258-0.26611-0.84027-1.40967c-0.55103-0.56836-1.19031-1.22754-1.77563-1.83105
			c-0.57922-0.60742-1.0556-1.21338-1.33832-1.60596c-0.54749-0.80664-0.26337-0.82568,2.15839,0.90381
			c-2.22156-1.91748-4.38086-3.90674-6.57098-5.85449c1.48816,1.27344,3.38855,2.80371,5.6377,4.58154
			c1.11017,0.90625,2.41046,1.74951,3.73853,2.7168c1.34741,0.94238,2.74988,1.979,4.27716,3.00537
			c6.14276,4.06543,13.74554,8.6709,22.66351,13.2832c-1.56335-0.77637-3.0415-1.70703-4.5528-2.5752
			c-1.50024-0.8877-3.02118-1.73926-4.50513-2.64941l-4.38574-2.83252l-2.19318-1.41064l-2.12531-1.50781l-4.24579-3.01025
			c-1.40051-1.02051-2.7403-2.11963-4.11328-3.17139c-2.77521-2.07031-5.35889-4.36084-7.98566-6.58643
			c-1.33606-1.08838-2.55975-2.29688-3.82159-3.45996c-1.25378-1.17236-2.50543-2.34326-3.75482-3.51172
			c-1.198-1.22168-2.39386-2.44092-3.58728-3.65771l-1.79224-1.82227c-0.5932-0.61035-1.1413-1.26074-1.71393-1.8877
			c-1.13538-1.26416-2.26825-2.52539-3.39844-3.78418c-1.14832-1.24463-2.16022-2.59766-3.24573-3.88574
			c-1.05615-1.31152-2.16144-2.58203-3.17444-3.91748c-1.00342-1.34326-2.00409-2.68359-3.00183-4.01953L57.47367,299.78
			l-1.40399-2.05859c-0.93292-1.37354-1.86298-2.74268-2.78992-4.10742c-0.95142-1.35107-1.74567-2.79297-2.62433-4.17871
			c-0.85254-1.40088-1.72894-2.78369-2.55804-4.18701c-0.78821-1.42676-1.57349-2.84863-2.35571-4.26514
			c-0.77429-1.42188-1.59991-2.81299-2.27881-4.26953c-0.71216-1.44238-1.42139-2.87842-2.12756-4.30859
			c-0.34888-0.71729-0.71851-1.4248-1.04919-2.14697l-0.95123-2.17969c-5.16998-11.56152-8.96674-23.27686-11.5257-34.68701
			c0.51685,1.29395,1.51318,4.8042,1.08191,0.60303c-0.33289-2.06006-0.77661-3.99316-1.06873-5.85156
			c-0.29547-1.85791-0.60968-3.61523-0.93561-5.28369c-0.16998-0.8335-0.33551-1.64551-0.49683-2.43701
			c-0.13531-0.79443-0.26715-1.56836-0.39563-2.32227c-0.2666-1.50781-0.54187-2.93701-0.81799-4.2959
			c-0.61117-2.71484-0.93829-5.16455-1.35358-7.39404c-0.38263-2.23047-0.75903-4.24707-0.85248-6.10889l0.1358,1.85986
			c0.05762,0.61963,0.14673,1.23828,0.21869,1.85645l0.45691,3.70068c0.19275-2.62891,0.16223-5.65771,0.30548-8.93018
			c0.03973-1.63574,0.05658-3.33301,0.05774-5.07031c0.03601-1.73584,0.14618-3.5083,0.20038-5.30225
			c0.18158-7.17871,0.93182-14.63037,1.99585-20.89062c0.93976-3.3418,2.02399-6.33887,2.97211-9.35303
			c1.08569-2.97119,2.17151-5.94238,3.35809-9.18945c0.63928-1.60498,1.28723-3.28174,1.95184-5.06787
			c0.34021-0.89014,0.65106-1.82031,1.0282-2.75977c0.38214-0.93799,0.77637-1.90527,1.18451-2.90723
			c1.5462-4.04053,3.46796-8.56006,5.79456-13.88184l0.50226,1.12109l2.23712-4.09473
			c0.76099-1.35547,1.45013-2.74854,2.29144-4.05762l2.42957-3.9751l1.21393-1.98486l1.30103-1.93018
			c-1.19275,1.97754-1.38593,2.65234-1.25293,2.71045c0.14056,0.0625,0.60187-0.49365,0.95874-0.83984
			c-0.46429,1.29297-1.08112,2.02393-2.81158,4.78125c0.33533,0.86182,2.12299-0.52637,4.54169-3.11768
			c2.57727-2.49902,5.72345-6.2417,9.13232-9.97461c-0.95892,1.26025-1.91779,2.52002-2.8067,3.68848
			c-0.84418,1.2002-1.5636,2.34766-2.14026,3.31201c2.34918-3.37012,8.13587-10.50049,12.51117-15.08936
			c4.52588-4.48096,7.29089-6.6792,3.27258-0.93994c-0.9696,1.09717-1.87604,2.12598-2.67328,3.13965
			c-0.81702,0.99707-1.59277,1.92285-2.33295,2.78809c-0.73138,0.87207-1.46478,1.65479-2.09991,2.43848
			c-0.64423,0.77686-1.25073,1.50879-1.82678,2.20361c-1.16626,1.38086-2.25769,2.58301-3.27375,3.71631
			c-0.9848,1.15869-1.9032,2.23926-2.81219,3.30859c-0.90662,1.07471-1.8526,2.11523-2.74335,3.28369
			c-0.87836,1.17578-1.78339,2.42969-2.74847,3.84717c-0.48248,0.70898-0.98004,1.4585-1.49664,2.25928
			c-0.49432,0.81299-0.9726,1.6958-1.48926,2.63232c-0.51239,0.93896-1.04517,1.94043-1.60181,3.01562
			c-0.27551,0.53906-0.55969,1.09473-0.85321,1.66895C47.78269,128.8591,47.5261,129.47336,47.24979,130.10275z" fill="#9c1f16" style=""></path>
		<path d="M112.60429,49.40744c-1.00085,0.51123-1.85901,0.9502-2.58942,1.32324c-0.71906,0.39307-1.31226,0.7168-1.79431,0.98047
			c-0.96814,0.51953-1.5058,0.77197-1.72504,0.82471c-0.4386,0.10498,0.39716-0.58838,1.60327-1.52637
			c1.18591-0.9707,2.83459-2.03418,3.8974-2.85938c1.06763-0.81641,1.57971-1.34619,0.58496-1.06885l3.5119-2.04443
			c1.18909-0.64795,2.39996-1.25635,3.59943-1.88623l3.60785-1.87305c1.19696-0.63623,2.4527-1.15137,3.6767-1.73291
			c0.2193,0.1958-0.53857,0.76611-1.80951,1.5332c-1.27045,0.77246-3.00732,1.82812-4.80103,2.91846
			C116.72721,46.0715,113.07652,48.62082,112.60429,49.40744z" fill="#9c1f16" style=""></path>
		<path d="M229.14682,369.05295c0.78955,0.28271,3.92273-0.09131,7.60229-0.8042c3.65894-0.81494,7.89954-1.77441,10.92896-2.60352
			c1.46545-0.51904,2.7926-0.98877,4.026-1.42578c1.21936-0.47314,2.32251-0.97656,3.38586-1.42676
			c1.0592-0.45703,2.0708-0.89307,3.07776-1.32764c0.50354-0.21387,1.00586-0.42725,1.51257-0.64209
			c0.49829-0.23682,1.00073-0.47559,1.5127-0.71875c2.04138-0.98535,4.29028-1.89893,7.00073-3.12451
			c2.67786-1.29883,5.96484-2.58057,9.94775-4.5791c-5.58704,4.3335-2.02197,3.396,4.62488,0.74854
			c1.64441-0.68652,3.42529-1.57373,5.31921-2.46484c0.94324-0.45557,1.90784-0.92139,2.88086-1.39111
			c0.94946-0.51465,1.9071-1.03369,2.86035-1.55029c0.9574-0.51514,1.91016-1.02832,2.84595-1.53223
			c0.46985-0.25049,0.93555-0.49854,1.39526-0.74365c0.44836-0.2627,0.89087-0.52246,1.32617-0.77783
			c1.74133-1.02246,3.38196-1.95996,4.82971-2.74023c-1.81567,1.36279-3.92053,3.14844-6.39172,4.98242
			c-1.2511,0.89844-2.56726,1.84375-3.9325,2.82373c-0.68835,0.48535-1.38892,0.979-2.09998,1.47998
			c-0.7356,0.46289-1.48206,0.93262-2.23706,1.40771c-1.51453,0.94531-3.07336,1.90088-4.66223,2.84912
			c-1.62354,0.88428-3.29114,1.73535-4.96594,2.5752l-2.52368,1.2334c-0.85437,0.38086-1.72559,0.72119-2.58765,1.06885
			c-1.72815,0.68701-3.45374,1.33252-5.15881,1.91895c0.64978-0.66943-2.05359,0.10938-5.67566,1.26074
			c-0.90137,0.29834-1.8623,0.61621-2.84436,0.94141c-0.99414,0.2876-2.00964,0.58105-3.00708,0.86963
			c-1.98853,0.58398-3.90527,1.14697-5.43677,1.59668c-4.54016,1.95801-2.39148,2.36426-3.9071,3.71094
			c-0.77087,0.64551-2.43225,1.6792-6.46021,2.90088c-2.01392,0.60498-4.57104,1.47852-7.94458,2.14062
			c-1.68445,0.35107-3.55237,0.74072-5.62488,1.17236c-2.08972,0.33398-4.39465,0.65479-6.9281,1.01367
			c-1.87097,0.18164-4.43811,0.2876-7.20575,0.48535c-1.38458,0.08545-2.81897,0.21631-4.2486,0.27783
			c-1.43115,0.02441-2.85443,0.04932-4.2099,0.07227c-1.35529,0.01709-2.64252,0.02393-3.80127,0.01367
			c-1.15875,0-2.18896-0.12842-3.03015-0.20801c-1.68292-0.18994-2.60785-0.44238-2.30322-0.79492
			c-1.28625-0.16113-2.55377-0.17676-3.82501-0.13086c-1.26996,0.0249-2.54291,0.0498-3.83173,0.0752
			c-1.29053,0.02148-2.60028,0.02002-3.93732-0.08887c-1.33936-0.08252-2.69727-0.36084-4.08063-0.84766l-2.77875-0.95557
			c8.37946,0.8916,16.81311,0.94775,25.18054,0.60547c0.92462,0.17676,2.84241,0.52588,5.13184,0.38525
			c-1.19769-0.22314-0.09033-0.49268,1.96747-0.84326c2.0545-0.43213,5.05841-0.95312,7.68469-1.46875
			c5.24652-1.21777,8.92059-2.47656,0.88208-2.31104c-11.19348,1.17334-22.51001,1.24072-33.72198,0.2251
			c-2.034-0.28467-2.81238-0.6377-2.67511-0.77539c0.14014-0.16357,1.20184-0.17334,2.89935-0.23486
			c1.69519-0.03662,4.01422-0.01221,6.65753,0.06641c2.64905-0.01904,5.62701-0.06836,8.63501-0.03467
			c2.18903,0.11279,4.0943,0.13379,5.77313,0.18896c1.67755,0.02148,3.13403,0.12891,4.41272,0.04688
			c2.56165-0.09082,4.45239-0.19482,6.14777-0.34277c1.69952-0.10938,3.18524-0.44482,4.96173-0.78271
			c0.88525-0.18213,1.84302-0.37988,2.93237-0.604C226.54086,369.69553,227.75766,369.44064,229.14682,369.05295z" fill="#9c1f16" style=""></path>
		<path d="M145.88614,365.34836l-1.62543-0.9707c2.3728,0.74902,4.72131,1.5708,7.10956,2.26074l7.19928,1.94287l7.28125,1.59033
			c1.20764,0.29053,2.43933,0.4624,3.66339,0.66943l3.67419,0.60645C163.94791,370.23801,154.81558,368.134,145.88614,365.34836z" fill="#9c1f16" style=""></path>
		<path d="M323.48398,318.56613c-0.91016,1.10938-1.81714,2.15967-2.75562,3.14453
			c-0.97021,0.95312-1.94373,1.86914-2.91626,2.78467c-0.96753,0.92041-1.93445,1.84082-2.91821,2.77686
			c-1.0127,0.9043-2.02246,1.84668-3.02966,2.8667l-1.71619-0.94385l3.4436-2.49854
			c1.15515-0.82959,2.22412-1.75879,3.34448-2.63525l3.33472-2.67383C321.35812,320.4675,322.40915,319.50705,323.48398,318.56613z" fill="#9c1f16" style=""></path>
		<path d="M51.54343,299.41232c-1.44421-1.51221-3.289-3.72998-5.00104-6.47803c-0.88239-1.3584-1.79388-2.81104-2.71576-4.30762
			c-0.90033-1.50781-1.72198-3.10791-2.58453-4.67529c-0.82697-1.58496-1.74976-3.11279-2.46259-4.67383
			c-0.76086-1.53906-1.49377-3.02197-2.17584-4.40186c-1.44995-2.72412-2.49603-5.12451-3.48999-6.60107
			c2.07806,5.34521,1.70129,3.3584,2.49884,4.53662c-0.61615-1.73389-1.18805-3.48389-1.78125-5.22217
			c-0.58258-1.74219-1.20447-3.4668-1.67096-5.24561C37.74704,274.72629,43.15036,286.89914,51.54343,299.41232z" fill="#9c1f16" style=""></path>
		<path d="M355.67111,270.92892c0.48315-1.12012,0.95471-2.17773,1.36316-3.2041c0.37158-1.04053,0.72522-2.03125,1.06396-2.98047
			c0.6499-1.90674,1.28442-3.62646,1.74866-5.2876c0.44092-1.66553,0.85388-3.22461,1.2561-4.74365
			c0.19763-0.75781,0.3927-1.50537,0.58716-2.25098c0.18469-0.74805,0.32263-1.50732,0.49072-2.26367
			c0.63672-3.03467,1.43127-6.11963,2.17102-9.87891c0.88049-3.72607,1.74292-8.10547,2.87744-13.6582
			c1.14502-4.82568,0.12646,6.17236,1.479-0.87598c1.40063-7.04883,0.6366-8.82764,0.55798-12.33203l-0.80359,2.69385
			c0.38806-1.33936,0.87378-3.42578,1.28186-5.67627c0.34558-2.25342,0.70264-4.66504,1.07336-6.63135
			c0.71729-3.96484,1.39856-6.19482,2.40039-1.49365c-0.08203,1.81494-0.14246,3.56787-0.18433,5.26562
			c-0.06165,1.69727-0.01404,3.34424-0.14343,4.93408c-0.07483,1.59326-0.14746,3.1377-0.21802,4.63965
			c-0.05457,1.50391-0.08118,2.96875-0.21521,4.38721c-0.23291,2.83936-0.30469,5.55957-0.55188,8.16113
			c-0.25525,2.60889-0.50073,5.11865-0.74121,7.57617c-0.35986,2.44189-0.72034,4.83984-1.11414,7.2334
			c-0.3938,2.39307-1.02209,4.73047-1.60681,7.12744c-0.55798,2.40674-1.41956,4.77148-2.30688,7.22314
			c-0.46167,1.21924-0.90002,2.47217-1.45776,3.71143c-0.56873,1.23486-1.16858,2.48828-1.80396,3.76367
			c-1.09302,0.98389-2.16284,1.96143-3.25867,2.91211l-2.55432,6.25098c-0.40649,1.05322-0.88574,2.07178-1.36743,3.09033
			l-1.43079,3.06543c-0.29968,0.36572-0.51221,0.40771-0.88794,0.86865c-0.38025,0.4585-0.88306,1.35547-1.95715,3.33252
			c-1.98523,4.26514-0.93176,2.89014,0.68982,0.56543c0.40454-0.58203,0.84766-1.21973,1.28162-1.84424
			c0.40601-0.64062,0.80505-1.26709,1.16736-1.80127c0.72339-1.06787,1.29187-1.76904,1.41736-1.48779
			c-0.91187,1.99951-1.80017,4.01611-2.849,5.94971c-1.02271,1.94678-1.99255,3.93018-3.06384,5.85645l-3.31934,5.72803
			c-1.11084,1.91064-2.37097,3.72559-3.55261,5.59766c-1.9718,2.57178,1.09924-2.5166,0.38257-1.85059
			c-1.00293,1.20605-1.91333,2.38477-2.75562,3.5415c-0.89209,1.11963-1.72253,2.2124-2.50134,3.29248
			c-0.77979,1.0791-1.51282,2.1416-2.22144,3.18994c-0.72583,1.03418-1.47693,2.01367-2.19727,3.00293
			c-2.85254,3.97559-5.90186,7.58447-10.32104,10.79443c0.94409-0.98438,1.8092-2.04541,2.68494-3.09229l2.62427-3.13623
			c0.89209-1.02637,1.71533-2.11279,2.53223-3.20264l2.46375-3.24805c-6.37744,7.47461-12.76868,13.26416-18.8501,18.17773
			c-6.04272,4.97949-12.03076,8.80518-17.78955,12.44189c8.10327-5.37549,14.64819-11.07275,20.29944-16.74365
			c1.37537-1.4541,2.72559-2.88184,4.05566-4.28809c1.30762-1.42383,2.49805-2.91699,3.71863-4.34424
			c0.60315-0.71875,1.20288-1.43408,1.79968-2.14551c0.59229-0.71436,1.12878-1.47168,1.69104-2.19971
			c1.10925-1.46484,2.20996-2.91846,3.30652-4.36621c1.03259-1.4917,2.0614-2.97754,3.09058-4.46436l1.54517-2.22168
			c0.50671-0.74658,0.97095-1.52539,1.4624-2.28613c0.97937-1.521,1.96301-3.04883,2.9552-4.58984
			c0.94104-1.5708,1.89001-3.15527,2.85095-4.75977c0.4884-0.7959,0.97974-1.59717,1.47473-2.40381
			c0.46228-0.82617,0.92786-1.6582,1.39722-2.49756c0.95532-1.66748,1.92603-3.3623,2.91626-5.09082
			c0.92981-1.76123,1.89722-3.54736,2.90979-5.36572c0.25281-0.45459,0.50708-0.91211,0.76294-1.37256
			c0.23645-0.46973,0.47424-0.94189,0.7135-1.41748C354.67831,272.85959,355.1716,271.90012,355.67111,270.92892z" fill="#9c1f16" style=""></path>
	</g>
</g>


<desc>Created with Snap</desc><defs></defs></g><g><g transform="matrix(1,0,0,-1,0,0)"><path d="M622 504Q624 493 623 481Q623 469 622 458Q622 446 619 438Q617 431 617 423Q617 417 619 411Q622 406 622 400Q622 393 620 385Q619 378 624 371Q625 366 621 365Q618 364 617 361Q615 352 616 344Q618 336 610 328Q612 321 615 319Q611 316 612 311Q613 307 613 303Q613 300 610 296Q608 293 608 291L603 257L608 248Q603 243 604 240Q606 238 606 235Q606 233 603 226Q600 219 599 216Q597 206 597 196Q597 186 597 177Q597 174 594 172Q592 170 590 168Q591 151 585 142Q579 134 579 121Q579 116 581 113Q583 110 585 105Q589 94 588 80Q588 66 588 55Q588 50 584 49Q581 49 579 47Q579 43 577 41Q575 39 574 36Q567 34 561 30Q556 26 551 21Q546 19 543 21Q540 24 535 23Q531 19 533 15Q536 12 535 8Q530 6 527 2Q524 -1 519 -3Q514 -2 507 -1Q501 1 495 3Q490 6 486 10Q482 14 481 21Q473 24 465 29Q458 34 449 36Q448 39 449 41Q451 43 451 45Q451 48 449 52Q447 56 440 62Q442 68 435 73Q428 78 426 81Q422 90 418 92Q415 94 413 96Q411 106 403 119Q395 133 385 135Q384 143 379 150Q374 158 372 166Q370 170 366 172Q362 175 358 177Q359 184 357 186Q355 188 353 190Q351 193 350 197Q350 201 347 205Q343 214 339 215Q335 216 333 218Q333 226 330 230Q328 235 325 238Q322 242 319 246Q317 250 317 257Q315 259 310 264Q306 270 300 276Q295 282 290 287Q286 292 285 293Q286 301 283 302Q280 304 278 306Q276 310 277 313Q278 317 274 322Q273 336 266 344Q260 353 258 361Q256 365 257 369Q258 374 256 378Q254 380 251 382Q249 384 251 391Q249 395 245 397Q242 400 240 404Q238 408 237 411Q237 415 235 419Q233 421 231 423Q230 425 228 428Q224 441 220 444Q217 447 215 452Q213 454 213 457Q214 460 212 462Q206 470 206 474Q206 478 199 480Q199 488 195 496Q191 505 183 508Q183 516 179 520Q176 524 172 530Q169 538 164 544Q160 550 156 558Q152 557 153 552Q154 548 149 549Q154 541 153 530Q153 520 153 511Q153 506 155 501Q157 496 158 491Q156 481 156 477Q157 474 153 469Q153 465 155 462Q158 460 158 457Q158 454 156 449Q154 445 158 443Q156 429 159 420Q162 411 162 402Q160 386 161 379Q162 372 162 365Q162 361 164 358Q167 356 169 354Q168 351 167 346Q167 342 162 341Q165 339 165 336Q165 333 165 330Q165 327 168 323Q172 320 172 316Q171 303 174 302Q175 297 172 297Q169 297 169 293Q171 289 172 285Q174 281 176 276Q176 261 172 246Q169 232 169 218Q169 213 170 208Q172 203 172 198Q172 192 167 185Q171 170 171 151Q171 147 174 146Q178 145 178 141Q178 130 175 117Q173 105 181 96Q179 94 179 89Q179 85 176 83Q175 78 179 77Q183 77 181 73Q178 70 177 65Q177 60 177 55Q177 50 176 45Q176 41 172 38Q176 28 172 20Q169 13 162 5Q153 4 152 10Q152 16 149 21Q140 19 131 16Q122 13 117 5Q99 3 89 9Q79 16 79 27Q79 33 80 39Q82 45 83 51Q84 62 83 75Q83 88 87 99Q84 101 84 106Q84 111 81 114Q82 115 83 121Q85 127 85 133Q86 140 86 146Q87 152 87 155Q87 160 85 165Q84 171 84 176Q82 192 86 199Q90 206 90 213Q90 216 88 218Q87 221 87 224Q87 227 88 229Q90 232 90 235Q90 238 87 240Q85 243 85 246Q85 250 85 254Q86 258 90 261Q87 264 86 269Q85 274 84 278Q84 283 83 287Q82 291 78 293Q80 306 81 320Q83 334 76 345Q81 356 81 373Q81 391 76 402Q79 409 80 417Q81 426 81 434Q81 440 78 445Q76 451 76 455Q78 462 77 463Q76 465 76 467Q76 470 76 478Q76 486 78 488Q78 491 76 493Q74 496 74 499Q74 502 75 504Q76 507 76 510Q76 514 75 517Q74 520 74 523Q74 533 75 543Q77 553 71 562Q75 568 76 571Q75 574 74 577Q74 580 69 579Q74 586 74 599Q74 621 69 634Q64 648 63 658Q62 669 69 680Q76 691 101 709Q112 708 123 708Q135 708 144 701Q147 688 149 685Q152 683 153 677Q164 672 175 669Q186 667 197 662Q201 659 203 655Q206 652 210 649Q213 642 214 635Q215 628 224 625Q223 616 225 612Q228 609 231 601Q233 597 233 592Q234 587 240 588Q239 583 240 580Q241 578 242 573Q247 566 250 562Q253 559 256 551Q258 546 263 544Q268 542 267 534Q275 528 276 523Q277 518 274 519Q279 513 285 508L285 495Q286 493 289 487Q293 482 297 476Q301 470 304 465Q308 461 310 460Q307 458 309 453Q311 449 310 445Q312 440 315 437Q318 434 322 430Q323 423 326 416Q329 410 335 406Q337 401 334 400Q332 399 331 395Q341 387 346 375Q352 363 363 354Q368 340 372 334Q376 329 381 324Q380 316 384 314Q388 313 390 311Q388 303 392 297Q396 292 401 287Q405 283 405 277Q406 272 408 267Q414 263 414 260Q414 258 417 257Q417 252 417 245Q418 238 426 237L426 226Q435 221 441 213Q448 205 458 200Q461 192 465 183Q469 174 479 170Q481 162 485 155Q490 149 494 142Q497 143 498 148Q499 153 499 160Q500 167 501 175Q503 183 508 190L508 205Q510 210 512 214Q515 219 519 222Q514 228 516 234Q519 241 519 248Q519 251 518 254Q517 258 517 261Q517 284 523 306Q530 329 530 352Q530 360 527 366Q524 373 524 380Q524 389 528 397Q533 406 533 413Q531 425 533 429Q536 434 536 439Q536 443 533 445Q531 447 531 452Q531 456 534 458Q537 461 538 465Q534 472 536 479Q538 487 535 493Q537 506 534 507Q532 508 531 517Q529 529 531 541Q534 554 534 567Q534 578 526 582Q529 588 527 595Q526 602 526 609Q526 616 529 621Q532 626 532 631Q536 634 536 637Q536 640 538 642Q539 656 537 670Q536 685 535 699Q542 699 547 704Q552 710 556 714Q561 719 566 721Q572 724 581 718Q587 717 589 720Q592 723 597 722Q602 718 607 715Q612 713 617 709Q616 702 620 698Q624 695 626 690Q628 684 627 677Q626 670 626 664Q626 661 627 658Q629 656 629 653Q629 641 624 629Q620 618 620 605Q621 601 619 599Q617 598 617 595Q617 587 619 587Q622 588 624 584Q620 579 622 571Q624 564 620 560Q622 558 621 552Q621 547 626 547Q621 542 623 532Q625 522 629 517Q629 511 627 509Q625 508 622 504ZM1178 487Q1172 482 1165 472Q1159 462 1153 460Q1151 459 1148 459Q1145 460 1142 460Q1137 460 1135 458Q1133 456 1129 455Q1122 459 1115 460Q1108 461 1101 465Q1095 465 1092 462Q1089 459 1084 459Q1079 459 1074 461Q1070 463 1066 458Q1047 464 1027 466Q1008 469 989 474Q981 470 973 470Q966 471 958 469Q955 468 952 466Q949 465 946 465Q942 465 939 466Q936 467 932 467Q926 467 920 464Q914 462 908 462Q903 462 900 464Q897 467 892 462Q889 467 885 464Q882 462 879 460Q863 460 857 461Q852 463 845 462Q845 455 845 442Q845 429 845 415Q846 402 846 390Q846 379 845 375Q848 368 855 368Q863 368 868 368Q882 362 896 361Q911 361 925 361Q930 361 933 362Q937 363 942 363Q946 363 954 361Q963 360 971 359Q980 359 986 361Q993 363 993 371Q1004 373 1008 367Q1013 361 1018 361Q1023 361 1025 365Q1027 369 1031 371Q1035 371 1036 367Q1037 364 1044 364Q1050 364 1057 368Q1065 373 1073 363Q1080 361 1083 363Q1086 365 1092 366Q1099 354 1108 343Q1117 333 1122 320Q1119 320 1115 317Q1111 314 1108 309Q1105 305 1103 301Q1101 297 1102 294Q1096 289 1089 284Q1083 280 1075 280Q1067 280 1065 283Q1064 286 1059 286Q1054 286 1050 284Q1047 283 1043 283Q1038 283 1032 284Q1027 286 1021 286Q1014 286 1007 283Q1001 281 994 281Q989 281 985 283Q982 285 978 286Q971 287 965 287Q959 288 952 288Q947 288 943 285Q940 283 935 283Q930 283 924 284Q919 286 914 286Q910 286 907 285Q904 284 901 284Q883 282 872 280Q861 279 850 276Q851 265 851 254Q852 243 857 233Q857 230 854 229Q852 228 852 223Q860 213 861 201Q863 190 862 178Q861 166 860 154Q859 142 864 130Q861 122 859 115Q858 109 859 101Q866 91 877 91Q882 91 886 91Q890 92 895 92Q899 92 902 91Q905 90 909 90Q921 90 933 91Q945 93 957 93Q961 93 964 92Q968 92 972 92Q979 92 985 93Q992 95 999 95Q1004 95 1008 93Q1012 92 1017 92Q1026 92 1034 95Q1043 98 1052 98Q1054 98 1057 97Q1060 97 1062 97Q1067 97 1069 101Q1071 106 1073 107Q1078 108 1083 109Q1088 110 1093 111Q1097 112 1099 108Q1102 105 1103 102Q1112 101 1117 96Q1123 91 1131 90Q1133 85 1136 81Q1139 78 1144 78Q1142 70 1146 61Q1140 59 1135 54Q1131 49 1126 47Q1127 41 1128 35Q1129 30 1128 23Q1126 21 1122 21Q1119 22 1116 22Q1109 22 1107 17Q1106 13 1101 13Q1098 15 1093 15Q1088 15 1083 15Q1078 15 1073 15Q1069 15 1066 17Q1060 17 1056 14Q1052 12 1048 8Q1038 12 1029 9Q1021 6 1013 1Q1009 5 1005 5Q1002 5 997 4Q997 7 994 9Q992 12 991 15Q974 12 957 13Q940 15 923 10Q914 15 901 15Q889 15 880 8Q872 12 863 8Q854 5 845 5Q832 8 829 5Q827 3 824 3Q819 3 814 3Q810 3 805 5Q800 12 796 12Q793 12 789 14Q788 22 780 29Q772 36 767 41Q770 43 773 44Q777 46 777 50Q770 60 769 64Q769 68 769 72Q770 77 769 81Q769 86 765 89Q775 92 775 96Q775 110 771 122Q767 134 767 148Q775 156 774 159Q774 163 774 173Q774 184 775 193Q777 203 768 211Q770 221 768 230Q767 240 767 250Q767 262 769 273Q772 285 772 297Q772 304 769 307Q767 310 767 313Q770 326 768 329Q766 333 765 338Q763 353 764 369Q766 385 766 401Q766 412 762 426Q759 440 761 446Q759 449 758 453Q757 457 753 459Q759 467 752 473Q746 480 746 488Q746 497 749 503Q753 509 749 519Q758 523 769 526Q774 531 775 534Q776 538 786 538Q803 538 819 535Q835 533 852 530Q856 531 859 531Q862 532 865 534Q873 530 880 530Q887 531 893 533Q900 535 906 537Q913 540 920 540Q928 540 935 538Q942 537 950 537Q976 537 1002 540Q1029 544 1055 542Q1064 537 1062 533Q1066 535 1069 536Q1073 537 1078 537Q1090 537 1105 536Q1121 536 1132 533Q1138 527 1142 526Q1147 524 1151 522Q1155 521 1160 519Q1164 517 1167 515Q1171 514 1175 512Q1182 502 1177 497Q1173 493 1178 487ZM1754 177L1760 186L1760 174Q1763 179 1763 185Q1764 191 1763 196Q1769 204 1770 212Q1771 221 1773 230Q1778 233 1777 234Q1777 235 1777 240Q1777 243 1778 244Q1780 246 1782 247Q1784 249 1785 251Q1787 253 1787 259Q1787 270 1785 279Q1783 289 1785 300Q1789 302 1791 304Q1793 307 1798 308Q1800 315 1803 322Q1806 330 1812 335Q1813 337 1813 342Q1813 347 1814 350Q1816 355 1819 360Q1822 366 1824 372Q1827 380 1829 389Q1832 398 1836 406Q1846 427 1855 449Q1864 471 1860 494Q1865 496 1872 506Q1880 516 1884 521Q1883 526 1885 532Q1900 542 1910 540Q1921 539 1929 542Q1936 537 1941 531Q1946 525 1953 521Q1955 510 1955 499Q1956 488 1958 477Q1955 473 1951 470Q1948 467 1944 464Q1944 460 1940 448Q1937 437 1932 424Q1927 412 1922 401Q1917 390 1914 387Q1915 376 1912 371Q1909 366 1902 358Q1900 338 1890 326Q1890 309 1881 296Q1872 284 1873 272Q1873 258 1869 248Q1865 239 1860 230Q1855 222 1852 212Q1849 202 1851 188Q1847 182 1843 181Q1843 164 1838 148Q1834 132 1831 115Q1830 110 1827 107Q1825 104 1822 100Q1827 92 1823 83Q1819 75 1819 66Q1819 63 1823 60Q1827 58 1827 53Q1827 48 1822 34Q1818 21 1816 16Q1811 15 1800 10Q1790 6 1790 -1Q1784 -4 1780 -4Q1777 -4 1773 -9Q1765 -4 1758 -3Q1752 -1 1744 1Q1741 11 1737 20Q1733 29 1731 39Q1725 51 1723 54Q1721 57 1707 63L1707 83Q1698 95 1693 107Q1688 119 1675 129Q1676 136 1674 141Q1672 147 1669 152Q1666 157 1663 162Q1661 167 1661 175L1651 180Q1647 187 1647 190Q1648 193 1640 197Q1640 203 1639 207Q1639 212 1634 216Q1634 224 1631 228Q1629 232 1626 237Q1623 243 1620 247Q1617 252 1616 253Q1614 257 1607 259Q1603 276 1595 286Q1587 296 1577 309Q1568 305 1564 303Q1561 301 1561 299Q1561 297 1562 294Q1563 292 1563 286Q1555 277 1555 274Q1556 271 1556 268Q1554 266 1551 264Q1548 263 1551 259Q1548 256 1546 254Q1545 253 1546 248Q1544 246 1541 244Q1538 243 1535 241Q1528 236 1529 228Q1531 220 1524 212L1524 200Q1524 197 1522 195Q1520 193 1518 191Q1514 188 1511 180Q1509 173 1507 168Q1501 155 1499 142Q1497 129 1495 115Q1493 109 1489 104Q1485 100 1485 93Q1485 90 1486 87Q1488 84 1488 81Q1488 75 1485 71Q1483 68 1480 64Q1478 61 1476 56Q1474 52 1475 44Q1470 40 1465 36Q1461 33 1456 31Q1457 23 1453 18Q1449 14 1448 6Q1439 6 1431 6Q1424 6 1416 3Q1407 13 1402 24Q1396 27 1395 32Q1394 37 1387 41Q1389 46 1389 48Q1389 51 1387 56Q1380 64 1372 70Q1365 76 1357 83Q1363 91 1365 96Q1359 107 1353 117Q1348 128 1336 136Q1334 154 1325 169Q1316 184 1316 202Q1311 213 1307 224Q1303 235 1299 246Q1298 250 1294 251Q1290 253 1287 255Q1287 265 1285 267Q1283 270 1277 278Q1277 300 1260 316Q1261 324 1257 328Q1254 332 1257 339Q1252 347 1249 357Q1246 367 1248 377Q1243 379 1242 382Q1242 386 1242 390Q1242 391 1239 397Q1237 403 1234 409Q1231 416 1228 421Q1226 427 1225 429Q1219 439 1209 445Q1209 457 1207 469Q1205 482 1197 492Q1198 511 1207 522Q1216 534 1233 542Q1246 537 1256 530Q1266 524 1279 522Q1281 515 1283 509Q1286 503 1285 496Q1290 488 1292 480Q1294 473 1302 467Q1301 458 1303 451Q1306 444 1309 437Q1312 431 1314 426Q1317 421 1317 417Q1316 408 1318 403Q1321 399 1324 391Q1326 386 1326 381Q1327 377 1329 372Q1331 364 1335 358Q1339 352 1343 345Q1349 336 1351 325Q1353 314 1358 304Q1363 292 1370 279Q1377 267 1377 254Q1377 252 1380 248Q1384 245 1386 243Q1390 238 1390 236Q1390 235 1392 230Q1399 216 1402 207Q1410 200 1412 190Q1415 181 1423 175Q1429 183 1435 200Q1441 218 1441 229Q1446 233 1448 238Q1450 244 1451 251Q1460 256 1461 265Q1463 274 1467 283Q1473 285 1476 296Q1479 307 1482 312Q1492 328 1497 340Q1503 352 1504 368Q1512 373 1514 375Q1516 384 1519 393Q1522 402 1529 408Q1529 414 1528 423Q1527 432 1526 442Q1526 452 1527 460Q1529 468 1533 472Q1538 476 1538 476Q1539 476 1542 483Q1547 483 1551 484Q1556 485 1560 483Q1567 488 1570 491Q1573 494 1582 496Q1584 485 1588 483Q1592 482 1601 480Q1607 473 1609 467Q1611 462 1620 457Q1617 448 1619 440Q1622 432 1625 422Q1629 412 1632 403Q1635 394 1636 392Q1641 381 1651 377Q1648 369 1649 365Q1651 362 1653 358Q1656 355 1658 351Q1660 347 1658 339Q1659 334 1662 331Q1666 329 1670 326Q1671 319 1674 309Q1677 300 1681 291Q1686 282 1692 275Q1699 268 1707 265Q1707 244 1726 236Q1728 227 1732 211Q1737 195 1743 187Q1745 185 1748 182Q1751 180 1754 177ZM2446 218Q2441 196 2443 174Q2446 152 2441 131Q2439 118 2431 107Q2424 96 2426 82Q2423 81 2418 77Q2414 73 2409 68Q2405 63 2401 58Q2398 54 2397 51Q2382 39 2371 30Q2361 21 2351 11Q2343 12 2335 11Q2328 10 2323 2Q2314 4 2305 1Q2297 -1 2287 -1Q2283 -1 2280 1Q2277 4 2272 4Q2269 4 2266 2Q2263 1 2260 1Q2255 1 2249 2Q2243 3 2238 3Q2236 3 2230 1Q2224 -1 2217 -4Q2211 -6 2205 -9Q2200 -12 2199 -13Q2187 -8 2176 -3Q2165 2 2152 -1Q2140 10 2127 11Q2115 12 2101 14Q2097 14 2096 17Q2096 21 2096 24Q2082 22 2074 23Q2066 25 2060 29Q2055 34 2049 40Q2044 46 2035 52Q2037 58 2035 62Q2034 67 2031 71Q2028 76 2025 80Q2023 85 2024 93Q2017 106 2002 114Q2001 119 1999 122Q1997 125 1997 132Q1997 138 1993 139Q1989 141 1989 144Q1994 153 2001 159Q2009 165 2013 174Q2021 171 2024 172Q2027 174 2035 168Q2037 166 2042 163Q2048 160 2055 156Q2062 152 2068 149Q2074 146 2076 145Q2078 133 2085 127Q2093 121 2097 110Q2102 108 2105 106Q2108 105 2115 107Q2117 103 2121 101Q2125 99 2127 95Q2142 97 2150 93Q2158 89 2171 88Q2173 85 2175 82Q2177 80 2179 78Q2193 79 2209 78Q2226 77 2239 84Q2244 79 2249 81Q2254 83 2259 83Q2264 83 2268 80Q2273 78 2278 78Q2283 78 2287 79Q2292 80 2297 80Q2303 80 2303 85Q2304 90 2308 90Q2316 90 2324 97Q2333 104 2339 109Q2344 109 2345 112Q2347 116 2354 118Q2365 129 2365 142Q2366 155 2360 168Q2360 173 2363 177Q2367 182 2367 187Q2367 197 2360 207Q2353 217 2348 226Q2346 229 2344 229Q2342 230 2339 231Q2337 236 2335 236Q2334 237 2329 238Q2326 241 2320 245Q2314 249 2310 249Q2295 249 2294 252Q2294 255 2280 255Q2268 255 2256 250Q2253 252 2247 254Q2241 256 2234 256Q2228 257 2222 256Q2217 255 2214 252Q2212 254 2206 257Q2200 261 2198 261Q2167 261 2141 268Q2116 276 2090 276Q2077 282 2074 284Q2071 286 2065 286Q2060 292 2056 297Q2053 303 2047 307Q2047 316 2043 323Q2040 330 2035 336Q2031 342 2027 348Q2024 355 2024 364Q2017 376 2009 384Q2006 405 2009 431Q2012 458 2029 473L2029 489Q2039 489 2045 492Q2052 496 2057 501Q2063 506 2068 511Q2074 516 2082 519Q2087 521 2089 525Q2091 529 2093 534Q2115 532 2137 538Q2159 545 2181 549Q2186 550 2189 554Q2192 558 2196 561Q2203 560 2208 557Q2214 555 2220 554Q2225 552 2229 553Q2233 555 2238 555Q2243 555 2249 549Q2265 550 2273 544Q2281 538 2289 539Q2295 531 2305 527Q2315 523 2325 523Q2326 518 2330 516Q2334 514 2335 509Q2348 507 2354 498Q2361 490 2373 487Q2375 482 2377 479Q2380 477 2382 472Q2389 473 2390 471Q2392 469 2397 467Q2404 453 2409 435Q2404 427 2400 418Q2396 410 2388 405Q2362 405 2345 415Q2328 425 2311 444Q2306 446 2298 446Q2290 447 2287 450Q2277 459 2272 458Q2268 458 2263 460Q2252 462 2241 467Q2230 472 2218 472Q2212 472 2207 470Q2203 468 2198 467Q2193 466 2189 467Q2186 468 2181 468Q2173 468 2170 465Q2168 462 2166 462Q2153 462 2144 458Q2136 454 2130 452Q2126 450 2123 447Q2120 445 2119 440Q2108 438 2104 431Q2100 425 2092 422Q2089 417 2094 412Q2090 406 2092 402Q2094 399 2097 395Q2101 392 2105 387Q2109 383 2109 375Q2109 368 2115 366Q2122 365 2126 361Q2131 357 2139 352Q2147 348 2152 348Q2155 348 2157 349Q2160 350 2163 350Q2170 350 2175 347Q2181 345 2187 345Q2190 345 2193 345Q2196 346 2199 346Q2210 346 2218 342Q2227 339 2239 346Q2252 339 2261 340Q2271 341 2277 337Q2280 335 2282 333Q2285 331 2288 331Q2291 331 2293 332Q2296 333 2298 333Q2302 333 2306 331Q2310 329 2313 334Q2319 327 2328 328Q2337 329 2345 328Q2348 323 2349 321Q2350 320 2349 313Q2358 314 2363 312Q2368 311 2371 308Q2375 305 2378 302Q2382 300 2388 299Q2391 290 2396 283Q2402 276 2412 274Q2415 266 2421 259Q2427 253 2434 248Q2435 231 2446 218Z" fill="#9c1f16" style=""></path></g></g><g transform="matrix(1,0,0,1,-100.5,1042.45)"><g transform="matrix(1,0,0,-1,0,0)"><path d="M622 504Q624 493 623 481Q623 469 622 458Q622 446 619 438Q617 431 617 423Q617 417 619 411Q622 406 622 400Q622 393 620 385Q619 378 624 371Q625 366 621 365Q618 364 617 361Q615 352 616 344Q618 336 610 328Q612 321 615 319Q611 316 612 311Q613 307 613 303Q613 300 610 296Q608 293 608 291L603 257L608 248Q603 243 604 240Q606 238 606 235Q606 233 603 226Q600 219 599 216Q597 206 597 196Q597 186 597 177Q597 174 594 172Q592 170 590 168Q591 151 585 142Q579 134 579 121Q579 116 581 113Q583 110 585 105Q589 94 588 80Q588 66 588 55Q588 50 584 49Q581 49 579 47Q579 43 577 41Q575 39 574 36Q567 34 561 30Q556 26 551 21Q546 19 543 21Q540 24 535 23Q531 19 533 15Q536 12 535 8Q530 6 527 2Q524 -1 519 -3Q514 -2 507 -1Q501 1 495 3Q490 6 486 10Q482 14 481 21Q473 24 465 29Q458 34 449 36Q448 39 449 41Q451 43 451 45Q451 48 449 52Q447 56 440 62Q442 68 435 73Q428 78 426 81Q422 90 418 92Q415 94 413 96Q411 106 403 119Q395 133 385 135Q384 143 379 150Q374 158 372 166Q370 170 366 172Q362 175 358 177Q359 184 357 186Q355 188 353 190Q351 193 350 197Q350 201 347 205Q343 214 339 215Q335 216 333 218Q333 226 330 230Q328 235 325 238Q322 242 319 246Q317 250 317 257Q315 259 310 264Q306 270 300 276Q295 282 290 287Q286 292 285 293Q286 301 283 302Q280 304 278 306Q276 310 277 313Q278 317 274 322Q273 336 266 344Q260 353 258 361Q256 365 257 369Q258 374 256 378Q254 380 251 382Q249 384 251 391Q249 395 245 397Q242 400 240 404Q238 408 237 411Q237 415 235 419Q233 421 231 423Q230 425 228 428Q224 441 220 444Q217 447 215 452Q213 454 213 457Q214 460 212 462Q206 470 206 474Q206 478 199 480Q199 488 195 496Q191 505 183 508Q183 516 179 520Q176 524 172 530Q169 538 164 544Q160 550 156 558Q152 557 153 552Q154 548 149 549Q154 541 153 530Q153 520 153 511Q153 506 155 501Q157 496 158 491Q156 481 156 477Q157 474 153 469Q153 465 155 462Q158 460 158 457Q158 454 156 449Q154 445 158 443Q156 429 159 420Q162 411 162 402Q160 386 161 379Q162 372 162 365Q162 361 164 358Q167 356 169 354Q168 351 167 346Q167 342 162 341Q165 339 165 336Q165 333 165 330Q165 327 168 323Q172 320 172 316Q171 303 174 302Q175 297 172 297Q169 297 169 293Q171 289 172 285Q174 281 176 276Q176 261 172 246Q169 232 169 218Q169 213 170 208Q172 203 172 198Q172 192 167 185Q171 170 171 151Q171 147 174 146Q178 145 178 141Q178 130 175 117Q173 105 181 96Q179 94 179 89Q179 85 176 83Q175 78 179 77Q183 77 181 73Q178 70 177 65Q177 60 177 55Q177 50 176 45Q176 41 172 38Q176 28 172 20Q169 13 162 5Q153 4 152 10Q152 16 149 21Q140 19 131 16Q122 13 117 5Q99 3 89 9Q79 16 79 27Q79 33 80 39Q82 45 83 51Q84 62 83 75Q83 88 87 99Q84 101 84 106Q84 111 81 114Q82 115 83 121Q85 127 85 133Q86 140 86 146Q87 152 87 155Q87 160 85 165Q84 171 84 176Q82 192 86 199Q90 206 90 213Q90 216 88 218Q87 221 87 224Q87 227 88 229Q90 232 90 235Q90 238 87 240Q85 243 85 246Q85 250 85 254Q86 258 90 261Q87 264 86 269Q85 274 84 278Q84 283 83 287Q82 291 78 293Q80 306 81 320Q83 334 76 345Q81 356 81 373Q81 391 76 402Q79 409 80 417Q81 426 81 434Q81 440 78 445Q76 451 76 455Q78 462 77 463Q76 465 76 467Q76 470 76 478Q76 486 78 488Q78 491 76 493Q74 496 74 499Q74 502 75 504Q76 507 76 510Q76 514 75 517Q74 520 74 523Q74 533 75 543Q77 553 71 562Q75 568 76 571Q75 574 74 577Q74 580 69 579Q74 586 74 599Q74 621 69 634Q64 648 63 658Q62 669 69 680Q76 691 101 709Q112 708 123 708Q135 708 144 701Q147 688 149 685Q152 683 153 677Q164 672 175 669Q186 667 197 662Q201 659 203 655Q206 652 210 649Q213 642 214 635Q215 628 224 625Q223 616 225 612Q228 609 231 601Q233 597 233 592Q234 587 240 588Q239 583 240 580Q241 578 242 573Q247 566 250 562Q253 559 256 551Q258 546 263 544Q268 542 267 534Q275 528 276 523Q277 518 274 519Q279 513 285 508L285 495Q286 493 289 487Q293 482 297 476Q301 470 304 465Q308 461 310 460Q307 458 309 453Q311 449 310 445Q312 440 315 437Q318 434 322 430Q323 423 326 416Q329 410 335 406Q337 401 334 400Q332 399 331 395Q341 387 346 375Q352 363 363 354Q368 340 372 334Q376 329 381 324Q380 316 384 314Q388 313 390 311Q388 303 392 297Q396 292 401 287Q405 283 405 277Q406 272 408 267Q414 263 414 260Q414 258 417 257Q417 252 417 245Q418 238 426 237L426 226Q435 221 441 213Q448 205 458 200Q461 192 465 183Q469 174 479 170Q481 162 485 155Q490 149 494 142Q497 143 498 148Q499 153 499 160Q500 167 501 175Q503 183 508 190L508 205Q510 210 512 214Q515 219 519 222Q514 228 516 234Q519 241 519 248Q519 251 518 254Q517 258 517 261Q517 284 523 306Q530 329 530 352Q530 360 527 366Q524 373 524 380Q524 389 528 397Q533 406 533 413Q531 425 533 429Q536 434 536 439Q536 443 533 445Q531 447 531 452Q531 456 534 458Q537 461 538 465Q534 472 536 479Q538 487 535 493Q537 506 534 507Q532 508 531 517Q529 529 531 541Q534 554 534 567Q534 578 526 582Q529 588 527 595Q526 602 526 609Q526 616 529 621Q532 626 532 631Q536 634 536 637Q536 640 538 642Q539 656 537 670Q536 685 535 699Q542 699 547 704Q552 710 556 714Q561 719 566 721Q572 724 581 718Q587 717 589 720Q592 723 597 722Q602 718 607 715Q612 713 617 709Q616 702 620 698Q624 695 626 690Q628 684 627 677Q626 670 626 664Q626 661 627 658Q629 656 629 653Q629 641 624 629Q620 618 620 605Q621 601 619 599Q617 598 617 595Q617 587 619 587Q622 588 624 584Q620 579 622 571Q624 564 620 560Q622 558 621 552Q621 547 626 547Q621 542 623 532Q625 522 629 517Q629 511 627 509Q625 508 622 504ZM871 49Q869 46 867 43Q865 41 864 38Q858 36 854 33Q850 31 843 31Q830 18 816 11Q810 16 802 17Q795 19 787 18Q787 19 784 22Q781 26 777 29Q774 33 771 36Q768 40 767 40Q767 52 764 64Q762 76 762 87Q762 95 765 103Q768 111 768 119Q768 128 767 137Q767 146 767 155Q767 159 768 162Q769 165 769 169Q769 174 766 178Q764 183 764 188Q764 193 765 197Q767 201 767 206Q767 213 762 218Q763 223 765 226Q767 229 769 234Q762 254 767 270Q772 286 772 306Q772 310 770 312Q768 315 767 319Q772 326 769 330Q766 335 764 340Q767 343 767 351Q767 359 767 363Q768 368 766 370Q765 372 764 377Q769 383 765 395Q762 407 762 415Q762 419 762 426Q763 434 763 442Q763 450 763 457Q763 464 762 468Q760 471 758 474Q756 477 756 481Q756 486 758 492Q760 498 759 503Q764 506 766 507Q768 508 774 506Q776 513 781 520Q786 527 794 527Q798 527 801 524Q804 521 807 519Q810 517 813 516Q816 516 819 521Q825 519 828 514Q831 510 839 509Q841 502 845 495Q849 489 849 482Q849 477 847 472Q846 468 846 463Q846 460 847 457Q849 454 849 450Q849 444 847 438Q846 432 846 425Q846 419 849 415Q852 412 852 407Q852 399 851 397Q851 395 856 388Q857 383 855 380Q854 377 854 374Q854 369 856 366Q859 363 859 360Q859 357 857 354Q856 351 856 348Q856 323 859 301Q860 295 862 289Q864 284 864 279Q864 273 862 267Q861 262 861 256Q861 244 862 232Q864 221 862 209Q864 204 864 199Q864 195 869 193Q867 188 864 186Q862 184 864 177Q862 169 866 165Q870 161 870 157Q870 156 867 154Q864 153 864 148Q864 144 866 141Q869 139 869 135Q869 130 868 125Q867 120 867 115Q867 104 870 92Q873 80 863 70Q868 65 867 59Q866 53 871 49ZM1475 463L1481 463Q1473 461 1472 454Q1472 448 1472 440Q1472 433 1473 426Q1474 420 1476 418Q1468 412 1470 407Q1473 403 1475 396Q1469 386 1471 371Q1473 357 1473 346Q1473 342 1471 338Q1470 335 1470 331Q1470 325 1472 319Q1475 313 1475 306Q1475 296 1472 288Q1470 280 1473 269Q1465 260 1466 248Q1468 237 1468 226Q1468 221 1466 216Q1464 212 1463 207Q1461 199 1463 192Q1465 185 1460 177Q1465 169 1465 160Q1465 151 1465 143Q1465 135 1468 125Q1472 116 1470 109Q1476 106 1476 98Q1476 88 1473 88Q1470 89 1465 83Q1468 78 1469 74Q1471 70 1473 65Q1473 59 1468 51Q1464 44 1469 39Q1459 32 1456 20Q1452 18 1447 14Q1443 10 1439 10Q1435 10 1431 11Q1428 13 1424 13Q1414 13 1405 9Q1397 5 1386 6Q1370 8 1365 12Q1360 16 1355 21Q1350 26 1345 31Q1340 36 1334 38Q1333 41 1327 47Q1322 54 1315 60Q1309 66 1302 71Q1295 76 1292 77Q1284 85 1283 89Q1282 93 1275 93Q1276 100 1273 104Q1271 109 1268 113Q1265 118 1261 122Q1258 126 1257 132Q1247 134 1244 142Q1241 150 1230 150Q1228 157 1223 159Q1218 162 1213 164Q1212 169 1210 169Q1208 170 1210 176Q1199 184 1189 193Q1179 203 1167 211Q1165 219 1160 225Q1156 232 1148 236Q1148 240 1144 247Q1140 255 1135 263Q1130 271 1125 278Q1120 285 1117 288Q1112 293 1112 295Q1113 298 1106 303Q1101 306 1102 308Q1103 311 1100 315Q1098 320 1093 323Q1089 327 1085 331Q1080 332 1078 330Q1076 329 1075 327Q1074 325 1073 323Q1072 321 1068 321Q1069 316 1070 312Q1072 308 1072 303Q1072 298 1069 292Q1066 286 1072 284Q1068 276 1067 266Q1067 257 1072 249Q1066 248 1065 244Q1064 240 1065 234Q1067 229 1069 223Q1071 218 1071 215Q1071 210 1069 205Q1068 201 1068 196Q1068 186 1073 176Q1078 166 1084 158Q1089 152 1090 145Q1092 138 1095 132Q1091 124 1094 116Q1097 108 1098 99Q1100 96 1102 93Q1105 91 1107 87Q1102 85 1102 80Q1103 75 1101 71Q1101 64 1103 59Q1105 54 1105 49Q1106 45 1103 41Q1101 37 1093 32Q1094 20 1091 16Q1088 12 1082 3Q1074 2 1068 1Q1063 1 1057 6Q1049 6 1049 -2Q1040 3 1030 7Q1020 12 1012 17Q1012 27 1011 36Q1011 45 1011 55L1011 73Q1011 78 1009 80Q1007 83 1004 86Q1006 95 1006 108Q1007 122 999 129Q998 144 997 159Q997 174 994 189Q1003 200 998 214Q994 229 994 242Q994 245 995 248Q997 251 997 254Q997 270 994 285Q992 300 992 316Q992 323 994 330Q997 337 997 345Q997 354 996 363Q995 373 993 382Q992 385 990 390Q989 396 989 398Q989 403 990 406Q992 410 994 415Q987 441 985 468Q984 495 984 521Q988 525 993 529Q998 534 1003 538Q1009 543 1013 547Q1018 551 1019 551Q1022 552 1027 551Q1033 551 1038 549Q1044 548 1049 546Q1054 545 1055 543Q1057 540 1058 537Q1060 534 1062 532Q1065 529 1069 528Q1074 528 1079 520Q1082 515 1082 513Q1082 512 1083 511Q1084 510 1086 509Q1088 508 1094 505Q1102 494 1107 479Q1113 465 1119 450Q1125 436 1132 422Q1140 409 1153 399Q1153 385 1167 376Q1167 365 1171 363Q1175 361 1180 354Q1183 341 1191 332Q1200 324 1208 314Q1210 311 1211 308Q1212 305 1217 304Q1216 298 1219 296Q1223 295 1222 290Q1234 281 1234 275Q1235 269 1245 269Q1243 265 1246 262Q1249 259 1253 256Q1258 253 1263 249Q1268 245 1270 239L1282 239Q1284 228 1293 223Q1302 218 1305 207Q1310 205 1314 201Q1319 197 1324 195Q1325 187 1329 182Q1334 177 1341 173Q1340 165 1346 157Q1352 150 1358 147Q1363 148 1362 143Q1362 139 1370 137Q1386 153 1377 176Q1382 181 1381 191Q1381 201 1381 207Q1381 216 1383 225Q1385 235 1385 244Q1385 251 1382 259Q1383 261 1385 268Q1387 275 1388 283Q1390 291 1391 298Q1392 305 1392 307Q1392 312 1389 314Q1387 316 1386 320Q1389 323 1391 326Q1394 329 1396 332Q1397 341 1393 342Q1389 343 1389 347Q1389 355 1391 363Q1394 371 1394 379Q1394 383 1392 386Q1391 390 1391 394Q1391 401 1393 407Q1396 413 1396 419Q1396 424 1393 433Q1391 443 1386 445Q1388 460 1389 475Q1390 490 1379 503Q1378 514 1377 524Q1377 535 1385 544Q1392 546 1398 548Q1405 551 1408 559Q1419 559 1429 559Q1440 560 1451 557Q1458 545 1464 534Q1470 523 1465 509Q1467 504 1470 498Q1473 492 1473 486Q1473 482 1471 479Q1470 476 1470 473Q1470 468 1471 467Q1473 466 1475 463ZM2076 501Q2074 498 2074 495Q2075 492 2075 489Q2075 484 2065 473Q2056 462 2052 460Q2047 457 2041 455Q2035 454 2030 452Q2022 450 2019 445Q2016 440 2010 438Q2000 437 1992 439Q1984 442 1976 443L1967 435Q1964 440 1956 440Q1950 440 1938 439Q1927 439 1914 437Q1902 436 1891 434Q1880 433 1874 432Q1874 427 1876 422Q1879 418 1879 413Q1879 410 1877 408Q1876 406 1876 403Q1884 384 1885 370Q1887 356 1899 351Q1899 348 1897 346Q1896 344 1896 341Q1896 333 1900 328Q1904 324 1906 318Q1910 307 1909 295Q1909 284 1913 273Q1914 270 1915 267Q1916 264 1916 261Q1916 258 1913 255Q1911 253 1916 249Q1915 241 1912 235Q1909 229 1909 221Q1909 218 1910 215Q1911 212 1911 209Q1911 206 1910 204Q1909 202 1909 199Q1909 195 1910 191Q1911 188 1911 184Q1911 179 1909 174Q1908 170 1906 165Q1901 152 1900 139Q1899 126 1899 112Q1899 109 1899 105Q1899 102 1897 99Q1894 97 1890 97Q1886 98 1883 98Q1876 90 1871 83Q1867 76 1866 65Q1855 64 1851 56Q1847 49 1845 40Q1828 34 1811 30Q1795 27 1779 19Q1767 22 1752 20Q1738 18 1727 11Q1719 11 1708 10Q1697 10 1692 3Q1688 3 1686 7Q1685 11 1680 11Q1675 11 1670 10Q1666 9 1661 9Q1654 9 1647 10Q1640 11 1633 13Q1629 21 1623 25Q1618 29 1616 38Q1607 40 1603 46Q1600 53 1592 55Q1592 68 1584 78Q1577 88 1574 100Q1567 109 1567 113Q1568 118 1563 120Q1567 125 1563 127Q1559 129 1555 130Q1559 146 1560 166Q1562 186 1573 199Q1592 201 1605 199Q1619 197 1631 190Q1632 184 1632 182Q1633 180 1630 174Q1634 171 1635 166Q1637 162 1638 157Q1639 152 1641 148Q1643 144 1648 143Q1644 128 1655 119Q1667 111 1673 108Q1673 105 1674 102Q1675 100 1676 97Q1691 97 1700 97Q1710 97 1719 98Q1729 99 1737 101Q1745 104 1751 110Q1760 109 1775 113Q1790 118 1790 130Q1793 136 1794 134Q1796 132 1802 132Q1806 132 1809 136Q1813 141 1818 143Q1816 150 1818 157Q1820 165 1818 170Q1823 180 1825 191Q1828 203 1829 214Q1834 218 1831 231Q1828 245 1827 252L1827 265Q1827 272 1824 278Q1822 284 1819 290Q1817 296 1816 302Q1815 309 1817 316Q1815 320 1812 323Q1809 326 1807 329Q1807 335 1807 337Q1808 340 1802 344Q1802 346 1802 349Q1803 352 1803 355Q1803 360 1800 364Q1797 369 1795 374Q1792 382 1792 393Q1792 404 1787 412Q1783 417 1778 418Q1774 420 1772 428Q1767 428 1762 427Q1758 427 1753 427Q1748 427 1743 428Q1739 429 1734 429Q1730 429 1727 427Q1724 426 1720 426Q1703 426 1688 436Q1683 432 1677 431Q1672 431 1666 431Q1660 432 1653 431Q1647 431 1641 428Q1636 429 1633 431Q1630 434 1626 436Q1618 430 1610 430Q1603 431 1595 429Q1583 428 1577 431Q1571 435 1568 437Q1565 446 1559 444Q1553 442 1549 446Q1549 452 1548 459Q1548 466 1547 473Q1547 481 1548 488Q1549 495 1553 500Q1558 502 1566 505Q1575 509 1580 509Q1584 509 1587 508Q1590 507 1594 507Q1599 507 1603 509Q1608 512 1611 512Q1614 512 1617 510Q1620 509 1623 509Q1627 509 1630 511Q1633 514 1636 514Q1650 514 1664 510Q1678 506 1692 509Q1696 503 1705 504Q1714 506 1716 499Q1730 502 1744 503Q1758 505 1772 499Q1781 501 1789 505Q1798 509 1807 509Q1810 509 1812 508Q1815 507 1817 507Q1823 507 1828 509Q1834 511 1839 512Q1864 514 1888 512Q1912 511 1935 523Q1939 526 1945 525Q1951 524 1956 524Q1960 524 1963 525Q1967 527 1971 527Q1975 527 1979 525Q1983 524 1987 524Q1990 524 1992 525Q1995 527 1997 529Q2009 525 2019 528Q2029 531 2040 521Q2044 523 2047 525Q2051 527 2056 527Q2062 521 2066 513Q2070 506 2076 501ZM2647 71Q2646 66 2638 63Q2630 61 2625 56Q2625 50 2622 47Q2619 45 2620 37Q2615 35 2610 28Q2605 21 2600 21Q2593 21 2588 24Q2584 28 2575 26Q2567 41 2553 47Q2546 60 2539 72Q2532 84 2526 97Q2511 110 2502 114Q2493 119 2485 117Q2478 116 2469 110Q2461 104 2446 95Q2436 95 2418 95Q2401 95 2393 99Q2390 100 2387 101Q2385 103 2382 103Q2378 103 2374 101Q2371 100 2367 100Q2363 100 2360 101Q2357 102 2353 103Q2349 103 2346 102Q2344 102 2341 103Q2335 100 2332 97Q2330 95 2326 95Q2312 100 2296 102Q2281 104 2267 112Q2259 114 2258 109Q2257 105 2252 105Q2241 106 2232 104Q2223 103 2212 103Q2207 103 2201 104Q2196 105 2191 105Q2185 105 2180 102Q2175 100 2170 100Q2166 100 2163 101Q2160 103 2155 103Q2150 103 2146 100Q2143 98 2139 98Q2134 98 2130 98Q2126 99 2122 99Q2113 99 2109 95Q2105 92 2103 86Q2102 81 2101 75Q2100 70 2095 66Q2097 51 2094 42Q2091 33 2082 21Q2069 20 2057 17Q2045 15 2032 15Q2024 15 2021 20Q2018 25 2013 30Q2006 36 2002 42Q1999 48 1994 56Q1995 60 1998 62Q2002 65 2005 67Q2003 73 2004 77Q2006 81 2009 85Q2012 89 2014 93Q2017 98 2017 103Q2017 109 2017 111Q2018 113 2019 114Q2020 115 2021 116Q2022 117 2024 121Q2026 125 2025 128Q2024 132 2026 136Q2030 145 2035 152Q2041 160 2046 168Q2048 173 2049 177Q2051 181 2053 185Q2056 193 2064 200L2064 213Q2067 217 2069 220Q2071 223 2076 225Q2075 237 2082 245Q2089 254 2091 265Q2105 273 2114 287Q2124 302 2121 319Q2129 322 2133 330Q2137 338 2145 341Q2145 349 2147 355Q2150 361 2150 369Q2159 374 2162 382Q2166 391 2170 399Q2171 401 2174 406Q2177 412 2180 418Q2183 424 2185 428Q2188 433 2188 435Q2206 465 2209 491Q2215 497 2217 499Q2220 502 2221 504Q2222 507 2222 510Q2222 514 2224 521Q2227 520 2229 523Q2232 527 2235 532Q2239 537 2244 541Q2250 546 2259 546Q2269 546 2278 544Q2287 542 2297 541Q2302 535 2307 530Q2313 525 2318 518L2318 506Q2326 496 2333 485Q2341 475 2353 470Q2352 459 2357 457Q2363 456 2370 451Q2369 442 2371 437Q2374 433 2377 427Q2381 422 2384 417Q2387 413 2388 411Q2393 402 2400 402Q2399 397 2403 395Q2407 394 2405 387Q2414 378 2427 373Q2427 366 2432 360Q2437 355 2442 352Q2443 347 2446 345Q2449 343 2452 341Q2457 338 2459 333Q2462 328 2467 326Q2468 317 2477 305Q2486 294 2496 282Q2506 271 2514 261Q2522 252 2521 247Q2529 242 2536 236Q2544 231 2554 227Q2554 219 2553 215Q2553 212 2554 209Q2555 207 2558 205Q2561 203 2568 198Q2567 193 2572 186Q2574 182 2575 177Q2576 173 2579 168Q2584 160 2592 155Q2601 151 2608 145Q2613 134 2616 123Q2619 112 2623 101Q2630 94 2638 91Q2639 86 2640 80Q2642 74 2647 71ZM2415 259Q2409 260 2406 263Q2403 267 2398 268Q2399 281 2393 282Q2387 283 2380 290Q2380 295 2376 296Q2372 298 2370 302Q2366 313 2365 314Q2364 316 2359 319Q2355 321 2355 324Q2355 327 2347 331Q2343 333 2339 334Q2335 335 2333 339Q2327 350 2318 362Q2310 375 2308 389Q2298 395 2293 403Q2289 411 2275 413Q2267 403 2264 391Q2261 380 2251 372L2251 359Q2246 353 2240 346Q2235 339 2236 331Q2228 329 2228 323Q2228 317 2224 312Q2222 309 2219 308Q2217 307 2217 302Q2212 292 2210 286Q2208 280 2205 275Q2194 270 2196 266Q2198 262 2195 255Q2191 248 2185 245Q2180 243 2182 232Q2171 222 2163 209Q2156 197 2158 182Q2168 183 2178 182Q2188 181 2198 181Q2209 181 2218 185Q2228 189 2239 189Q2252 189 2265 182Q2278 176 2290 182Q2295 180 2298 178Q2301 176 2306 174Q2339 168 2373 179Q2383 175 2388 174Q2391 176 2399 177Q2407 178 2415 179Q2424 180 2430 182Q2437 184 2436 187Q2443 191 2447 191Q2452 191 2452 202Q2452 208 2447 215Q2442 222 2435 229Q2428 237 2422 244Q2416 252 2415 259Z" fill="#9c1f16" style=""></path></g></g></g></svg>